<?xml version="1.0" encoding="UTF-8"?>
<!DOCTYPE svg PUBLIC "-//W3C//DTD SVG 1.1//EN" "http://www.w3.org/Graphics/SVG/1.1/DTD/svg11.dtd">
<!-- Creator: CorelDRAW X7 -->
<svg xmlns="http://www.w3.org/2000/svg" xml:space="preserve" width="512px" height="512px" version="1.1" style="shape-rendering:geometricPrecision; text-rendering:geometricPrecision; image-rendering:optimizeQuality; fill-rule:evenodd; clip-rule:evenodd"
viewBox="0 0 512 512"
 xmlns:xlink="http://www.w3.org/1999/xlink">
 <defs>
  <style type="text/css">
   <![CDATA[
    .str0 {stroke:black;stroke-width:0.999216}
    .str1 {stroke:#313030;stroke-width:0.900003}
    .fil2 {fill:none;fill-rule:nonzero}
    .fil0 {fill:white}
    .fil1 {fill:#313030;fill-rule:nonzero}
   ]]>
  </style>
 </defs>
 <g id="Слой_x0020_1">
  <metadata id="CorelCorpID_0Corel-Layer"/>
  <circle class="fil0 str0" cx="256" cy="256" r="256"/>
  <path class="fil1" d="M173 284l0 -36 93 0 0 86c-9,9 -22,16 -39,23 -17,7 -35,10 -52,10 -23,0 -42,-4 -59,-14 -17,-9 -29,-23 -38,-40 -8,-18 -12,-37 -12,-58 0,-22 4,-42 14,-60 9,-17 23,-30 41,-40 14,-7 31,-10 51,-10 27,0 48,5 63,16 15,12 24,27 29,47l-44 8c-3,-10 -8,-19 -17,-25 -8,-6 -18,-9 -31,-9 -19,0 -34,6 -45,18 -11,12 -17,30 -17,53 0,26 6,45 17,58 12,13 26,19 45,19 9,0 18,-2 27,-5 9,-4 17,-8 24,-13l0 -28 -50 0z"/>
  <polygon id="1" class="fil1" points="353,332 353,277 297,277 297,238 353,238 353,182 391,182 391,238 447,238 447,277 391,277 391,332 "/>
  <path id="2" class="fil2 str1" d="M173 284l0 -36 93 0 0 86c-9,9 -22,16 -39,23 -17,7 -35,10 -52,10 -23,0 -42,-4 -59,-14 -17,-9 -29,-23 -38,-40 -8,-18 -12,-37 -12,-58 0,-22 4,-42 14,-60 9,-17 23,-30 41,-40 14,-7 31,-10 51,-10 27,0 48,5 63,16 15,12 24,27 29,47l-44 8c-3,-10 -8,-19 -17,-25 -8,-6 -18,-9 -31,-9 -19,0 -34,6 -45,18 -11,12 -17,30 -17,53 0,26 6,45 17,58 12,13 26,19 45,19 9,0 18,-2 27,-5 9,-4 17,-8 24,-13l0 -28 -50 0z"/>
  <polygon id="3" class="fil2 str1" points="353,332 353,277 297,277 297,238 353,238 353,182 391,182 391,238 447,238 447,277 391,277 391,332 "/>
  <circle class="fil0 str0" cx="2093" cy="-303" r="256"/>
  <path class="fil1" d="M1937 -404l0 -52 57 0 0 52 -57 0zm0 246l0 -216 57 0 0 216 -57 0z"/>
  <path id="1" class="fil1" d="M2249 -158l-57 0 0 -110c0,-24 -1,-39 -4,-46 -2,-6 -6,-12 -12,-15 -5,-4 -12,-6 -20,-6 -10,0 -19,3 -26,8 -8,5 -14,13 -17,21 -3,9 -4,26 -4,50l0 98 -57 0 0 -216 53 0 0 31c19,-24 42,-36 71,-36 13,0 24,2 35,7 10,4 18,10 24,17 5,7 9,15 11,24 2,9 3,22 3,39l0 134z"/>
  <path id="2" class="fil2 str1" d="M1937 -404l0 -52 57 0 0 52 -57 0zm0 246l0 -216 57 0 0 216 -57 0z"/>
  <path id="3" class="fil2 str1" d="M2249 -158l-57 0 0 -110c0,-24 -1,-39 -4,-46 -2,-6 -6,-12 -12,-15 -5,-4 -12,-6 -20,-6 -10,0 -19,3 -26,8 -8,5 -14,13 -17,21 -3,9 -4,26 -4,50l0 98 -57 0 0 -216 53 0 0 31c19,-24 42,-36 71,-36 13,0 24,2 35,7 10,4 18,10 24,17 5,7 9,15 11,24 2,9 3,22 3,39l0 134z"/>
 </g>
</svg>
