<?xml version="1.0" encoding="UTF-8"?>
<!DOCTYPE svg PUBLIC "-//W3C//DTD SVG 1.1//EN" "http://www.w3.org/Graphics/SVG/1.1/DTD/svg11.dtd">
<!-- Creator: CorelDRAW X7 -->
<svg xmlns="http://www.w3.org/2000/svg" xml:space="preserve" width="512px" height="512px" version="1.1" style="shape-rendering:geometricPrecision; text-rendering:geometricPrecision; image-rendering:optimizeQuality; fill-rule:evenodd; clip-rule:evenodd"
viewBox="0 0 512 512"
 xmlns:xlink="http://www.w3.org/1999/xlink">
 <defs>
  <style type="text/css">
   <![CDATA[
    .str0 {stroke:black;stroke-width:0.999216}
    .str1 {stroke:#313030;stroke-width:0.900003}
    .fil2 {fill:none;fill-rule:nonzero}
    .fil0 {fill:white}
    .fil1 {fill:#313030;fill-rule:nonzero}
   ]]>
  </style>
 </defs>
 <g id="Слой_x0020_1">
  <metadata id="CorelCorpID_0Corel-Layer"/>
  <circle class="fil0 str0" cx="256" cy="256" r="256"/>
  <path class="fil1" d="M100 155l0 -53 57 0 0 53 -57 0zm0 246l0 -217 57 0 0 217 -57 0z"/>
  <path id="1" class="fil1" d="M412 401l-57 0 0 -111c0,-23 -1,-38 -3,-45 -3,-7 -7,-12 -12,-16 -6,-4 -13,-6 -20,-6 -10,0 -19,3 -27,9 -8,5 -14,12 -17,21 -3,9 -4,26 -4,50l0 98 -57 0 0 -217 53 0 0 32c19,-24 43,-36 71,-36 13,0 25,2 35,6 11,5 19,11 24,18 5,7 9,15 11,24 2,9 3,22 3,38l0 135z"/>
  <path id="2" class="fil2 str1" d="M100 155l0 -53 57 0 0 53 -57 0zm0 246l0 -217 57 0 0 217 -57 0z"/>
  <path id="3" class="fil2 str1" d="M412 401l-57 0 0 -111c0,-23 -1,-38 -3,-45 -3,-7 -7,-12 -12,-16 -6,-4 -13,-6 -20,-6 -10,0 -19,3 -27,9 -8,5 -14,12 -17,21 -3,9 -4,26 -4,50l0 98 -57 0 0 -217 53 0 0 32c19,-24 43,-36 71,-36 13,0 25,2 35,6 11,5 19,11 24,18 5,7 9,15 11,24 2,9 3,22 3,38l0 135z"/>
 </g>
</svg>
