<?xml version="1.0" encoding="UTF-8"?>
<!DOCTYPE svg PUBLIC "-//W3C//DTD SVG 1.1//EN" "http://www.w3.org/Graphics/SVG/1.1/DTD/svg11.dtd">
<!-- Creator: CorelDRAW X7 -->
<svg xmlns="http://www.w3.org/2000/svg" xml:space="preserve" width="512px" height="512px" version="1.1" style="shape-rendering:geometricPrecision; text-rendering:geometricPrecision; image-rendering:optimizeQuality; fill-rule:evenodd; clip-rule:evenodd"
viewBox="0 0 512 512"
 xmlns:xlink="http://www.w3.org/1999/xlink">
 <defs>
  <style type="text/css">
   <![CDATA[
    .str0 {stroke:black;stroke-width:0.999216}
    .str1 {stroke:#313030;stroke-width:0.900003}
    .fil3 {fill:none;fill-rule:nonzero}
    .fil1 {fill:#313030}
    .fil0 {fill:white}
    .fil2 {fill:#313030;fill-rule:nonzero}
   ]]>
  </style>
   <clipPath id="id0">
    <rect x="895" y="23" width="359" height="359"/>
   </clipPath>
 </defs>
 <g id="Слой_x0020_1">
  <metadata id="CorelCorpID_0Corel-Layer"/>
  <circle class="fil0 str0" cx="256" cy="256" r="256"/>
  <path class="fil1" d="M183 345c-32,30 -71,30 -106,32 56,37 152,48 227,-2 46,-28 97,-107 93,-186 13,-11 26,-22 37,-37 -14,5 -25,8 -42,11 21,-15 24,-23 32,-40 -9,5 -19,8 -28,12 -7,2 -8,4 -20,4 -52,-47 -108,-8 -116,13 -13,20 -10,37 -9,55 -69,-1 -121,-41 -152,-77 -13,27 -19,64 20,97 -14,1 -20,-4 -30,-8 -2,14 7,58 57,73 -10,3 -20,3 -31,2 8,19 19,46 68,51z"/>
  <circle class="fil0 str0" cx="2093" cy="-303" r="256"/>
  <path class="fil2" d="M1937 -404l0 -52 57 0 0 52 -57 0zm0 246l0 -216 57 0 0 216 -57 0z"/>
  <path id="1" class="fil2" d="M2249 -158l-57 0 0 -110c0,-24 -1,-39 -4,-46 -2,-6 -6,-12 -12,-15 -5,-4 -12,-6 -20,-6 -10,0 -19,3 -26,8 -8,5 -14,13 -17,21 -3,9 -4,26 -4,50l0 98 -57 0 0 -216 53 0 0 31c19,-24 42,-36 71,-36 13,0 24,2 35,7 10,4 18,10 24,17 5,7 9,15 11,24 2,9 3,22 3,39l0 134z"/>
  <path id="2" class="fil3 str1" d="M1937 -404l0 -52 57 0 0 52 -57 0zm0 246l0 -216 57 0 0 216 -57 0z"/>
  <path id="3" class="fil3 str1" d="M2249 -158l-57 0 0 -110c0,-24 -1,-39 -4,-46 -2,-6 -6,-12 -12,-15 -5,-4 -12,-6 -20,-6 -10,0 -19,3 -26,8 -8,5 -14,13 -17,21 -3,9 -4,26 -4,50l0 98 -57 0 0 -216 53 0 0 31c19,-24 42,-36 71,-36 13,0 24,2 35,7 10,4 18,10 24,17 5,7 9,15 11,24 2,9 3,22 3,39l0 134z"/>
  <circle class="fil0 str0" cx="1522" cy="-296" r="256"/>
  <path class="fil2" d="M1439 -267l0 -37 93 0 0 86c-9,9 -22,17 -39,23 -18,7 -35,10 -53,10 -22,0 -42,-4 -59,-14 -16,-9 -29,-23 -37,-40 -9,-18 -13,-37 -13,-58 0,-22 5,-42 14,-59 10,-18 23,-31 41,-40 14,-8 31,-11 52,-11 27,0 47,5 62,17 15,11 25,26 29,46l-43 8c-3,-10 -9,-19 -17,-25 -8,-6 -19,-9 -31,-9 -19,0 -34,6 -45,18 -11,12 -17,30 -17,54 0,25 6,44 17,57 11,13 26,19 44,19 9,0 19,-2 28,-5 9,-4 17,-8 23,-13l0 -27 -49 0z"/>
  <polygon id="1" class="fil2" points="1619,-219 1619,-275 1563,-275 1563,-314 1619,-314 1619,-369 1656,-369 1656,-314 1713,-314 1713,-275 1656,-275 1656,-219 "/>
  <path id="2" class="fil3 str1" d="M1439 -267l0 -37 93 0 0 86c-9,9 -22,17 -39,23 -18,7 -35,10 -53,10 -22,0 -42,-4 -59,-14 -16,-9 -29,-23 -37,-40 -9,-18 -13,-37 -13,-58 0,-22 5,-42 14,-59 10,-18 23,-31 41,-40 14,-8 31,-11 52,-11 27,0 47,5 62,17 15,11 25,26 29,46l-43 8c-3,-10 -9,-19 -17,-25 -8,-6 -19,-9 -31,-9 -19,0 -34,6 -45,18 -11,12 -17,30 -17,54 0,25 6,44 17,57 11,13 26,19 44,19 9,0 19,-2 28,-5 9,-4 17,-8 23,-13l0 -27 -49 0z"/>
  <polygon id="3" class="fil3 str1" points="1619,-219 1619,-275 1563,-275 1563,-314 1619,-314 1619,-369 1656,-369 1656,-314 1713,-314 1713,-275 1656,-275 1656,-219 "/>
  <circle class="fil0 str0" cx="940" cy="-286" r="256"/>
  <path class="fil2" d="M852 -364l40 0 0 -20c0,-23 2,-40 7,-51 5,-12 14,-21 27,-28 13,-7 30,-10 50,-10 20,0 40,3 60,9l-10 49c-11,-2 -22,-4 -33,-4 -11,0 -18,3 -23,8 -4,4 -7,14 -7,28l0 19 54 0 0 56 -54 0 0 214 -71 0 0 -214 -40 0 0 -56z"/>
  <path id="1" class="fil3 str1" d="M852 -364l40 0 0 -20c0,-23 2,-40 7,-51 5,-12 14,-21 27,-28 13,-7 30,-10 50,-10 20,0 40,3 60,9l-10 49c-11,-2 -22,-4 -33,-4 -11,0 -18,3 -23,8 -4,4 -7,14 -7,28l0 19 54 0 0 56 -54 0 0 214 -71 0 0 -214 -40 0 0 -56z"/>
  <g style="clip-path:url(#id0)">
   <image id="icons8-twitter.png" x="895" y="23" width="359" height="359" xlink:href="twitter_Images\twitter_ImgID1.jpg"/>
  </g>
 </g>
</svg>
